<svg id="WHLC_Mark" class="mr-2.5" width="35.344" height="47.383" data-name="WHLC Mark" xmlns="http://www.w3.org/2000/svg" viewBox="0 0 35.344 47.383">
  <path id="Path_869" data-name="Path 869" d="M616.908,345.72H584.376a1.383,1.383,0,0,0-1.406,1.358h0a1.383,1.383,0,0,0,1.406,1.358h32.532a1.383,1.383,0,0,0,1.406-1.358h0A1.383,1.383,0,0,0,616.908,345.72Z" transform="translate(-582.97 -323.406)"></path>
  <path id="Path_870" data-name="Path 870" d="M609.025,285.977a2.141,2.141,0,0,0,2.11-2.169v-9.99a.65.65,0,0,1,.651-.651l12.159-2.121a.65.65,0,0,1,.651.651l.028,1.319v10.792a2.111,2.111,0,1,0,4.221,0V270.191l.64-.112a2.111,2.111,0,1,0-.732-4.156l-19.988,3.519a2.158,2.158,0,0,0-1.8,1.968c-.031.148-.047,12.4-.047,12.4A2.133,2.133,0,0,0,609.025,285.977Z" transform="translate(-600.226 -265.889)"></path>
  <path id="Path_871" data-name="Path 871" d="M672.288,364.79h-1.2a1.573,1.573,0,0,0-1.574,1.574v16.592a1.573,1.573,0,0,0,1.574,1.574h1.2a1.573,1.573,0,0,0,1.574-1.574V366.364A1.573,1.573,0,0,0,672.288,364.79Z" transform="translate(-645.321 -337.146)"></path>
  <path id="Path_872" data-name="Path 872" d="M609.408,364.79h-1.2a1.573,1.573,0,0,0-1.574,1.574v2.728a1.573,1.573,0,0,0,1.574,1.574h1.2a1.573,1.573,0,0,0,1.574-1.574v-2.728A1.574,1.574,0,0,0,609.408,364.79Z" transform="translate(-600.017 -337.146)"></path>
  <path id="Path_873" data-name="Path 873" d="M630.218,364.79h-1.2a1.573,1.573,0,0,0-1.574,1.574v2.728a1.573,1.573,0,0,0,1.574,1.574h1.2a1.573,1.573,0,0,0,1.574-1.574v-2.728A1.577,1.577,0,0,0,630.218,364.79Z" transform="translate(-615.01 -337.146)"></path>
  <path id="Path_874" data-name="Path 874" d="M630.218,388.72h-1.2a1.573,1.573,0,0,0-1.574,1.574v2.728a1.573,1.573,0,0,0,1.574,1.574h1.2a1.573,1.573,0,0,0,1.574-1.574v-2.728A1.577,1.577,0,0,0,630.218,388.72Z" transform="translate(-615.01 -354.388)"></path>
  <path id="Path_875" data-name="Path 875" d="M651.5,364.79h-1.2a1.573,1.573,0,0,0-1.574,1.574v8.511a1.573,1.573,0,0,0,1.574,1.574h1.2a1.573,1.573,0,0,0,1.574-1.574v-8.511A1.573,1.573,0,0,0,651.5,364.79Z" transform="translate(-630.343 -337.146)"></path>
  <path id="Path_876" data-name="Path 876" d="M651.5,409.45h-1.2a1.573,1.573,0,0,0-1.574,1.574v2.728a1.573,1.573,0,0,0,1.574,1.574h1.2a1.573,1.573,0,0,0,1.574-1.574v-2.728A1.572,1.572,0,0,0,651.5,409.45Z" transform="translate(-630.343 -369.323)"></path>
</svg>