
<svg id="Layer_2" class="hidden xl:block" width="285.721" height="28" data-name="Layer 2" xmlns="http://www.w3.org/2000/svg" viewBox="0 0 285.721 28" fill="currentColor" aria-hidden="true">
<path id="Path_919" data-name="Path 919" d="M0,3.636H5.964L9.5,15.418,13.43,3.588h4.848l3.927,11.83L25.77,3.636h5.745L24.8,24.242H19.952l-4.17-11.83-4.073,11.83H6.861Zm33.939,0h5.624v7.612h7.273V3.636h5.648V24H46.739V16.267H39.467V24H33.939Zm22.133,0h5.648V19.055h9.842V23.9H56Zm16.048,10.23h0A10.473,10.473,0,0,1,82.861,3.273a9.939,9.939,0,0,1,8.63,4.242l-4.218,3.248a5.43,5.43,0,0,0-4.436-2.424A5.018,5.018,0,0,0,77.988,13.7h0a5.042,5.042,0,0,0,4.848,5.43A5.552,5.552,0,0,0,87.418,16.7l4.242,3.03a10.715,10.715,0,0,1-19.515-5.939Zm37.43,4.509-2.424,5.7H104.7l9.236-21.067,9.042,21.067h-2.424l-2.424-5.7Zm4.388-10.158-3.467,8.073h6.788Zm13.5,15.855h-2.23V3.952h2.909c3.806,0,7.273,1.018,7.273,5.552a5.236,5.236,0,0,1-5.042,5.552l6.424,9.018h-2.715l-6.085-8.824h-.558Zm0-10.812h.7c2.424,0,5.091-.461,5.091-3.588s-2.424-3.636-5.115-3.636h-.679Zm27.564-4.848a8.654,8.654,0,0,0-6.133-2.667,8.315,8.315,0,1,0,0,16.63,8.849,8.849,0,0,0,6.085-2.667v2.739a10.4,10.4,0,0,1-16.485-8.339,10.521,10.521,0,0,1,10.473-10.5A9.7,9.7,0,0,1,154.958,5.6Zm16.388,3.709V3.952h2.255V24.073h-2.255V14.206H161.115v9.867h-2.255V3.952h2.255v8.17Zm8.7,11.952h-2.255V3.952H180.1Zm9.406,0h-2.23V6.036h-4.848V3.952h12.121V6.036H189.7Zm7.273-20.121H207.2V6.036h-8.267v6.085h7.952v2.085h-7.952v7.782h8.194v2.085H196.7Zm29.576,4.412A8.606,8.606,0,0,0,220.218,5.7a8.315,8.315,0,0,0,0,16.63,8.8,8.8,0,0,0,6.085-2.667v2.788a10.4,10.4,0,0,1-16.485-8.339,10.521,10.521,0,0,1,10.473-10.5A9.7,9.7,0,0,1,226.3,5.6Zm9.042,15.709h-2.23V6.036h-4.848V3.952h12.121V6.036h-4.848Zm9.455-8.145a7.272,7.272,0,0,0,.9,4.485,5.115,5.115,0,0,0,4.048,1.915,5.358,5.358,0,0,0,3.952-1.77,6.958,6.958,0,0,0,.97-4.63V3.952h2.255V16.558a7.1,7.1,0,0,1-1.77,5.576,7.442,7.442,0,0,1-5.406,2.279,7.539,7.539,0,0,1-5.212-2.036,7.273,7.273,0,0,1-1.964-5.818V3.952h2.23Zm18.327,8.145h-2.23V3.952h2.885c3.83,0,7.273,1.018,7.273,5.552a5.236,5.236,0,0,1-5.042,5.552l6.4,9.018h-2.739l-6.085-8.824h-.558Zm0-10.812h.7c2.424,0,5.091-.461,5.091-3.588s-2.424-3.636-5.139-3.636h-.655ZM275.3,3.952h10.424V6.036h-8.194v6.085h7.952v2.085h-7.952v7.782h8.194v2.085H275.3ZM99.127,0h-.582V28h.582Z"></path>
</svg>